<?xml version="1.0" encoding="utf-8"?>
<!-- Generator: Adobe Illustrator 27.0.1, SVG Export Plug-In . SVG Version: 6.00 Build 0)  -->
<svg version="1.1" id="Calque_1" xmlns="http://www.w3.org/2000/svg" xmlns:xlink="http://www.w3.org/1999/xlink" x="0px" y="0px"
	 viewBox="0 0 5669.29 778.14" style="enable-background:new 0 0 5669.29 778.14;" xml:space="preserve">
<style type="text/css">
	.st0{fill:#EBEBEC;}
</style>
<g>
	<path class="st0" d="M654.17,707.98c-226.1,0-369.44-358.33-506.72-478.44v478.44H21.28V51.89h51.47
		c189.77,0,356.32,377.51,505.71,498.61V51.89h126.17v656.09H654.17z"/>
	<path class="st0" d="M1322.4,725.14c-212.98,0-345.22-147.36-345.22-345.2c0-200.86,132.23-345.2,345.22-345.2
		c213.98,0,345.21,144.34,345.21,345.2C1667.61,577.77,1536.38,725.14,1322.4,725.14 M1322.4,153.83
		c-138.28,0-210.96,94.89-210.96,226.1c0,131.22,72.67,224.07,210.96,224.07c139.3,0,211.97-92.85,211.97-224.07
		C1534.38,248.72,1461.71,153.83,1322.4,153.83"/>
	<polygon class="st0" points="2405.5,51.88 2547.82,51.88 2227.84,707.98 2167.29,707.98 1849.32,51.88 1989.62,51.88 
		2197.56,511.16 	"/>
	<path class="st0" d="M3074.72,725.14c-212.99,0-345.21-147.36-345.21-345.2c0-200.86,132.22-345.2,345.21-345.2
		c213.98,0,345.21,144.34,345.21,345.2C3419.93,577.77,3288.7,725.14,3074.72,725.14 M3074.72,153.83
		c-138.29,0-210.96,94.89-210.96,226.1c0,131.22,72.67,224.07,210.96,224.07c139.29,0,211.97-92.85,211.97-224.07
		C3286.69,248.72,3214.01,153.83,3074.72,153.83"/>
	<polygon class="st0" points="3591.55,51.88 4191.12,51.88 4191.12,165.95 3954.93,165.95 3954.93,707.98 3827.74,707.98 
		3827.74,165.95 3591.55,165.95 	"/>
	<path class="st0" d="M4880.53,171h-350.25v143.34h324.02v119.08h-324.02v54.51c0,88.83,48.46,112.06,152.42,112.06
		c92.86,0,143.33-6.07,197.83-15.17v117.12c-54.5,10.08-101.94,19.15-202.89,19.15c-181.68,0-274.53-62.57-274.53-236.17V51.89
		h477.42V171z"/>
	<path class="st0" d="M5310.54,477.85c0,89.84,32.31,119.08,136.27,119.08c89.83,0,146.37-7.05,200.87-14.1v116.08
		c-54.5,10.08-109.01,19.18-209.95,19.18c-180.67,0-254.35-69.65-254.35-242.26V51.88h127.17V477.85z"/>
</g>
</svg>
